#!OML:ASF E:/inclinewalkrobotboard/Project1/Captureday1/Session1/subject1.ASF
:FULLY-SPECIFIED
:DEGREES
326
root 0 0 0 17.509332134945346 -4.256659846543959 -1.420980315259912
lowerback 21.2931183963466 -3.2449178980758973 -1.1280898781707167
upperback -0.8573268523652215 -4.786508140801109 3.9100204939879477
thorax -12.672002906177898 -2.132110353129057 5.268747629666651
lowerneck -9.614161893617513 9.288044459922991 18.568906105417437
upperneck 21.4494983721163 10.872351636793294 -8.275024666647141
head 9.804993828784639 5.891628813053484 -4.608910720088573
rclavicle 1.2795318598979803E-15 5.396674235352753E-15
rhumerus 28.90428203337466 20.4263807641332 -74.49880836093611
rradius 109.10901722127642
rwrist -41.40160535564236
rhand -24.51687465471817 -23.706202779000492
rfingers 7.125019999999991
rthumb 2.008715514253792 -54.13436841360467
lclavicle -3.580445843585686E-15 5.648410280402515E-15
lhumerus 25.71444769880052 -35.931396932260895 73.8047255317255
lradius 142.34451196856494
lwrist 9.057783218032906
lhand -33.44987560629441 8.329300495468296
lfingers 7.125019999999938
lthumb -6.618893969992804 38.79674452712744
rfemur -48.79779758630002 3.3120010826194477 29.673189298111875
rtibia 45.016592315777416
rfoot -22.676984710631626 -3.7193357052661415
rtoes -43.31641167826094
lfemur -42.8829021162334 -19.042524842679228 -12.796719199614097
ltibia 21.578210343250106
lfoot -44.139159691205485 4.789905843343014
ltoes -35.39747907733293
327
root 0 0 0 17.5183916361168 -4.231219246656499 -1.4221681369983523
lowerback 21.268599036011828 -3.244879865531539 -1.1212827251634598
upperback -0.8636136480826639 -4.784352498084014 3.9179704667710853
thorax -12.665567567060076 -2.130916380677168 5.274109898031536
lowerneck -9.610723760249643 9.277322865386534 18.56051287582838
upperneck 21.465224374454245 10.856220040260267 -8.26841379688719
head 9.807058516261677 5.884256059694318 -4.607290814420754
rclavicle 1.3529021624511068E-15 5.360893065149424E-15
rhumerus 28.800302067212666 20.8764317560999 -74.78053728260431
rradius 109.76430565865763
rwrist -41.610269723921675
rhand -24.519979846866924 -23.595488092208537
rfingers 7.12501999999999
rthumb 2.00477950233984 -54.02367489281043
lclavicle -3.559625695224499E-15 5.626633708393046E-15
lhumerus 25.696860910614795 -35.96332341220203 73.83526385597818
lradius 142.358133151199
lwrist 9.073811864995818
lhand -33.45136527599616 8.335633573743392
lfingers 7.125019999999938
lthumb -6.620486540606095 38.803255182745474
rfemur -48.43595397442472 3.235561113540385 29.797235129210026
rtibia 44.88727783061949
rfoot -22.514593578330892 -3.7258448161149573
rtoes -43.413533713487546
lfemur -42.7891074580809 -19.15195637036554 -12.744703466601422
ltibia 21.29029906776716
lfoot -44.2436010788489 4.906857822340572
ltoes -35.36776358550064
328
root 0 0 0 17.52485419791048 -4.210317625253985 -1.4245281078896062
lowerback 21.247445446191392 -3.245423410413145 -1.1166478513889677
upperback -0.8691151392024654 -4.783548759341709 3.923796084441183
thorax -12.659976024366895 -2.1303590094742253 5.278570753351703
lowerneck -9.607664782404257 9.270130393840093 18.55503323835248
upperneck 21.47914264777003 10.845099573254563 -8.26308771760797
head 9.809301290635982 5.879315713331221 -4.606033001433648
rclavicle 1.4162385184211187E-15 5.358224895388634E-15
rhumerus 28.705219340455734 21.215547809353964 -74.9987055537521
rradius 110.22727449589539
rwrist -41.747700469317856
rhand -24.519243678500793 -23.508037753902578
rfingers 7.12501999999999
rthumb 2.0048325174787838 -53.935969530081366
lclavicle -3.515559501414672E-15 5.636500211061887E-15
lhumerus 25.687542975530107 -35.95920310666834 73.83882353578242
lradius 142.3525849359037
lwrist 9.076618132151687
lhand -33.44768111684393 8.337346060768937
lfingers 7.125019999999938
lthumb -6.617002700501937 38.80477282265665
rfemur -48.06871405493522 3.152474312161603 29.90883700445252
rtibia 44.75136663814156
rfoot -22.32193558176319 -3.740349075665792
rtoes -43.53440489927891
lfemur -42.42582055043796 -19.40207019154519 -12.692211637506249
ltibia 20.59692517345512
lfoot -44.41857929015205 5.142718242427052
ltoes -35.27914201502583
329
root 0 0 0 17.5281676371231 -4.195690910591676 -1.428186211943229
lowerback 21.231392004140275 -3.2465564785429972 -1.114555650232965
upperback -0.8734325205329512 -4.784250332806565 3.926966188219507
thorax -12.655750935535362 -2.1305282699778663 5.2817211771725585
lowerneck -9.604959031609255 9.267365370201128 18.553306833155837
upperneck 21.489938521609947 10.840340248818478 -8.259640719813293
head 9.811516721235371 5.877442839944184 -4.605305415539782
rclavicle 1.4707544262477339E-15 5.393937260447422E-15
rhumerus 28.625239452649197 21.42619522962355 -75.13998325409389
rradius 110.48256629920604
rwrist -41.80889731411918
rhand -24.51505521544749 -23.45023500755925
rfingers 7.12501999999999
rthumb 2.008545753076106 -53.877680153572626
lclavicle -3.4485045970007204E-15 5.6810216698671336E-15
lhumerus 25.687825136833652 -35.91654713581192 73.81312314732108
lradius 142.32685408162905
lwrist 9.065163730275213
lhand -33.43861958339629 8.334035090690168
lfingers 7.125019999999938
lthumb -6.608234494469922 38.80088037948403
rfemur -47.71557865988005 3.065177344863365 29.999616000103124
rtibia 44.616674863609106
rfoot -22.1052879931565 -3.7626018730225947
rtoes -43.67595135306327
lfemur -41.795299995961486 -19.784480736781827 -12.644118558663056
ltibia 19.516450388923
lfoot -44.65311673012601 5.4883314406611365
ltoes -35.134990934183264
